<?xml version="1.0" encoding="UTF-8"?>
<svg id="uuid-f90229d8-3340-4f4f-add2-6732e3685907" data-name="Logo" xmlns="http://www.w3.org/2000/svg" viewBox="0 0 990.2 390.41">
  <path id="uuid-01044dff-5b05-42e6-9654-dec39e4a31b8" data-name="hexagon" d="M0,97.6v195.2l169.05,97.6,169.05-97.6V97.6L169.05,0,0,97.6ZM323.1,284.14l-154.05,88.94L15,284.14V106.26L169.05,17.32l154.05,88.94v177.88Z" style="fill: #fafad2;"/>
  <path id="uuid-928673a6-4624-4718-a063-fa345ece9801" data-name="top-bar" d="M77.94,124.62v16.04h181.4v-16.04c0-5.35-4.34-9.69-9.69-9.69H87.63c-5.35,0-9.69,4.34-9.69,9.69Z" style="fill: #fafad2;"/>
  <path id="uuid-45955622-413c-4fcc-a5d1-8140857abd59" data-name="code-box" d="M77.94,265.79c0,5.35,4.34,9.69,9.69,9.69h162.02c5.35,0,9.69-4.34,9.69-9.69v-119.19H77.94v119.19ZM208.35,219.46c2.09,0,3.78,1.69,3.78,3.78s-1.69,3.78-3.78,3.78h-46.73c-2.09,0-3.78-1.69-3.78-3.78s1.69-3.78,3.78-3.78h46.73ZM130.07,182.36c-1.43-1.5-1.37-3.87.13-5.3,1.5-1.43,3.87-1.37,5.3.13l23.72,24.93-23.79,23.77c-.73.73-1.69,1.1-2.65,1.1s-1.92-.37-2.65-1.1c-1.46-1.46-1.46-3.84,0-5.3l18.61-18.6-18.68-19.63Z" style="fill: #fafad2;"/>
  <polygon id="uuid-c3b151db-c350-4fae-8cf3-fb7cc454d38e" data-name="W" points="433.64 208.59 432.25 217.39 430.45 209.49 417.83 163.85 410.55 163.85 397.61 209.49 395.77 217.26 394.51 208.63 384.18 163.85 375.56 163.85 391.37 229.25 399.23 229.25 413.2 181.59 414.23 176.61 415.27 181.59 428.74 229.25 436.6 229.25 452.46 163.85 443.79 163.85 433.64 208.59" style="fill: #fafad2;"/>
  <path id="uuid-a4b917fc-5211-479d-a02a-bdc10abfbb46" data-name="h" d="M485.9,179.75c-5.9,0-10.69,2.26-14.38,6.78v-26.28h-8.31v69h8.31v-34.63c1.14-2.34,2.72-4.22,4.76-5.66,2.04-1.44,4.4-2.16,7.1-2.16,3.32,0,5.77.84,7.34,2.52,1.57,1.68,2.37,4.27,2.4,7.77v32.16h8.31v-32.12c-.09-11.59-5.27-17.38-15.54-17.38Z" style="fill: #fafad2;"/>
  <rect id="uuid-ea6a60a2-08dc-4090-9b93-588786a3fae5" data-name="i" x="517.09" y="180.65" width="8.31" height="48.61" style="fill: #fafad2;"/>
  <path id="uuid-0ebd7e62-60b0-4b05-8be9-e8fb3efa990e" data-name="i-dot" d="M521.31,162.95c-1.62,0-2.84.46-3.66,1.39-.82.93-1.24,2.07-1.24,3.41s.41,2.47,1.24,3.37c.82.9,2.04,1.35,3.66,1.35s2.84-.45,3.68-1.35c.84-.9,1.26-2.02,1.26-3.37s-.42-2.49-1.26-3.41c-.84-.93-2.07-1.39-3.68-1.39Z" style="fill: #fafad2;"/>
  <path id="uuid-0a27f274-3854-42c6-9c44-1a3f66f1e66f" data-name="t1" d="M553.67,221.64c-.81-.97-1.21-2.44-1.21-4.39v-30.18h9.07v-6.42h-9.07v-11.77h-8.31v11.77h-8.85v6.42h8.85v30.14c0,4.13.94,7.32,2.83,9.57s4.69,3.37,8.4,3.37c2.07,0,4.19-.3,6.38-.89v-6.7c-1.68.36-3,.54-3.95.54-1.95,0-3.32-.49-4.13-1.46Z" style="fill: #fafad2;"/>
  <path id="uuid-9f5c68c9-2526-40d0-8d46-e5ecbfbab8b8" data-name="t2" d="M586.2,221.64c-.81-.97-1.21-2.44-1.21-4.39v-30.18h9.07v-6.42h-9.07v-11.77h-8.31v11.77h-8.85v6.42h8.85v30.14c0,4.13.94,7.32,2.83,9.57s4.69,3.37,8.4,3.37c2.07,0,4.19-.3,6.38-.89v-6.7c-1.68.36-3,.54-3.95.54-1.95,0-3.32-.49-4.13-1.46Z" style="fill: #fafad2;"/>
  <path id="uuid-bd2670dc-4a49-448a-b8fd-efb495e004ca" data-name="a" d="M643.27,195.52c-.12-4.91-1.77-8.77-4.94-11.57-3.17-2.8-7.56-4.2-13.16-4.2-3.53,0-6.78.66-9.73,1.98-2.95,1.32-5.29,3.11-7.01,5.37-1.72,2.26-2.58,4.6-2.58,7.03h8.36c0-2.13,1-3.94,3.01-5.44,2.01-1.5,4.49-2.25,7.46-2.25,3.38,0,5.94.86,7.68,2.58,1.74,1.72,2.61,4.04,2.61,6.94v3.82h-8.09c-6.98,0-12.39,1.4-16.24,4.2-3.85,2.8-5.77,6.73-5.77,11.79,0,4.16,1.53,7.6,4.6,10.31,3.07,2.71,7,4.07,11.79,4.07,5.36,0,9.97-2.01,13.84-6.02.3,2.46.69,4.16,1.17,5.12h8.71v-.72c-1.14-2.63-1.71-6.18-1.71-10.65v-22.37ZM634.96,215.64c-1.05,2.16-2.74,3.91-5.08,5.26s-4.81,2.02-7.41,2.02-4.96-.73-6.69-2.2c-1.74-1.47-2.61-3.5-2.61-6.11,0-5.96,5.09-8.94,15.27-8.94h6.51v9.97Z" style="fill: #fafad2;"/>
  <polygon id="uuid-4937e77c-e6aa-4020-92ba-f30482696c7b" data-name="k" points="696.83 180.65 686.72 180.65 671.58 196.64 667.13 201.99 667.13 160.25 658.82 160.25 658.82 229.25 667.13 229.25 667.13 212.18 672.34 206.75 689.28 229.25 699.03 229.25 677.92 200.95 696.83 180.65" style="fill: #fafad2;"/>
  <path id="uuid-36ca58ba-4ee6-42b5-b588-e70a76c38f38" data-name="e1" d="M727.03,179.75c-3.86,0-7.45,1.07-10.76,3.21-3.31,2.14-5.88,5.11-7.73,8.89-1.84,3.79-2.76,8.09-2.76,12.92v1.53c0,7.25,2.07,13.04,6.2,17.36,4.13,4.33,9.49,6.49,16.08,6.49,8.15,0,14.25-3.13,18.33-9.39l-5.08-3.95c-1.53,1.98-3.31,3.56-5.35,4.76-2.04,1.2-4.52,1.8-7.46,1.8-4.13,0-7.54-1.47-10.22-4.42-2.68-2.95-4.08-6.82-4.2-11.61h32.93v-3.46c0-7.76-1.75-13.72-5.26-17.88-3.5-4.16-8.42-6.24-14.73-6.24ZM738.71,200.5h-24.35c.54-4.4,1.95-7.82,4.22-10.26,2.28-2.44,5.09-3.66,8.45-3.66s6.23,1.16,8.27,3.48c2.04,2.32,3.17,5.59,3.41,9.82v.63Z" style="fill: #fafad2;"/>
  <path id="uuid-226af75b-6a21-4b6a-8d86-f825a57241c2" data-name="r" d="M767.34,186.26l-.13-5.62h-8.09v48.61h8.31v-34.5c1.95-4.64,5.64-6.96,11.1-6.96,1.47,0,2.83.11,4.09.31v-7.73c-.84-.42-2.07-.63-3.68-.63-5,0-8.87,2.17-11.59,6.51Z" style="fill: #fafad2;"/>
  <polygon id="uuid-45a42204-bdd3-430b-a6d0-6e3d9ff1e0df" data-name="T" points="788.64 170.9 809.62 170.9 809.62 229.25 818.2 229.25 818.2 170.9 839.22 170.9 839.22 163.85 788.64 163.85 788.64 170.9" style="fill: #fafad2;"/>
  <path id="uuid-850cd5e4-9b1d-40f2-9ab0-eb2b9a3417d6" data-name="e2" d="M869.25,179.75c-3.86,0-7.45,1.07-10.76,3.21-3.31,2.14-5.88,5.11-7.73,8.89-1.84,3.79-2.76,8.09-2.76,12.92v1.53c0,7.25,2.07,13.04,6.2,17.36,4.13,4.33,9.49,6.49,16.08,6.49,8.15,0,14.25-3.13,18.33-9.39l-5.08-3.95c-1.53,1.98-3.31,3.56-5.35,4.76-2.04,1.2-4.52,1.8-7.46,1.8-4.13,0-7.54-1.47-10.22-4.42-2.68-2.95-4.08-6.82-4.2-11.61h32.93v-3.46c0-7.76-1.75-13.72-5.26-17.88-3.5-4.16-8.42-6.24-14.73-6.24ZM880.92,200.5h-24.35c.54-4.4,1.95-7.82,4.22-10.26,2.28-2.44,5.09-3.66,8.45-3.66s6.23,1.16,8.27,3.48c2.04,2.32,3.17,5.59,3.41,9.82v.63Z" style="fill: #fafad2;"/>
  <path id="uuid-e76a12c8-ae03-405d-95e7-5dae3e735da5" data-name="c" d="M910.97,191.14c2.32-3.04,5.59-4.56,9.82-4.56,3.14,0,5.79,1.01,7.93,3.03,2.14,2.02,3.33,4.6,3.57,7.75h7.86c-.24-5.21-2.16-9.45-5.77-12.71-3.61-3.26-8.14-4.9-13.59-4.9-4.43,0-8.27,1.02-11.52,3.05-3.25,2.04-5.74,4.9-7.48,8.58-1.74,3.68-2.61,7.89-2.61,12.62v1.39c0,7.67,1.95,13.71,5.86,18.13,3.91,4.42,9.17,6.63,15.79,6.63,3.29,0,6.42-.75,9.37-2.25,2.95-1.5,5.31-3.5,7.08-6.02,1.77-2.52,2.72-5.17,2.88-7.95h-7.86c-.24,2.7-1.47,4.94-3.68,6.74-2.22,1.8-4.81,2.7-7.77,2.7-4.28,0-7.58-1.51-9.88-4.54-2.31-3.02-3.46-7.34-3.46-12.94v-1.57c0-5.75,1.16-10.14,3.48-13.18Z" style="fill: #fafad2;"/>
  <path id="uuid-fd334f48-6be4-45a5-a96d-720c9e380f91" data-name="h" d="M974.66,179.75c-5.9,0-10.69,2.26-14.38,6.78v-26.28h-8.31v69h8.31v-34.63c1.14-2.34,2.72-4.22,4.76-5.66,2.04-1.44,4.4-2.16,7.1-2.16,3.32,0,5.77.84,7.34,2.52,1.57,1.68,2.37,4.27,2.4,7.77v32.16h8.31v-32.12c-.09-11.59-5.27-17.38-15.54-17.38Z" style="fill: #fafad2;"/>
</svg>