<?xml version="1.0" encoding="UTF-8"?>
<svg id="uuid-37648685-b84b-444d-95c4-bd5803db8be4" xmlns="http://www.w3.org/2000/svg" version="1.1" viewBox="0 0 391 391">
  <!-- Generator: Adobe Illustrator 29.5.1, SVG Export Plug-In . SVG Version: 2.1.0 Build 141)  -->
  <path id="uuid-c56e97ba-e105-4eec-a600-1d1ea74fa2fa" d="M26.5,98v195l169,98,169-98V98L195.5,0,26.5,98ZM349.5,284l-154,89-154-89V106L195.5,17l154,89v178Z"/>
  <path id="uuid-f96aafbf-5a66-4785-b603-de29f68409a2" d="M113.73,141h163.53v-16s0-1-1.11-1H115.04s-1.31-.02-1.31,1.09"/>
  <path id="uuid-6655e919-a95f-4138-83e7-8e61eb42ae94" d="M113.55,266c.02.91,1,1,1,1h162s1,0,1-1v-119H113.45M231.93,219c2,0,4,2,4,4s-2,4-4,4h-47c-2,0-4-2-4-4s2-4,4-4h47ZM152.93,182c-1-2-1-4,0-5,2-1,4-1,5,0l24,25-24,24s-2,1-3,1-2,0-3-1-1-4,0-5l19-19-18-20Z"/>
</svg>