<svg xmlns="http://www.w3.org/2000/svg">
  <symbol id="github" viewBox="0 0 24 24" fill="currentColor">
    <path d="M10.9,2.1c-4.6,0.5-8.3,4.2-8.8,8.7c-0.6,5,2.5,9.3,6.9,10.7v-2.3c0,0-0.4,0.1-0.9,0.1c-1.4,0-2-1.2-2.1-1.9 c-0.1-0.4-0.3-0.7-0.6-1C5.1,16.3,5,16.3,5,16.2C5,16,5.3,16,5.4,16c0.6,0,1.1,0.7,1.3,1c0.5,0.8,1.1,1,1.4,1c0.4,0,0.7-0.1,0.9-0.2 c0.1-0.7,0.4-1.4,1-1.8c-2.3-0.5-4-1.8-4-4c0-1.1,0.5-2.2,1.2-3C7.1,8.8,7,8.3,7,7.6C7,7.2,7,6.6,7.3,6c0,0,1.4,0,2.8,1.3 C10.6,7.1,11.3,7,12,7s1.4,0.1,2,0.3C15.3,6,16.8,6,16.8,6C17,6.6,17,7.2,17,7.6c0,0.8-0.1,1.2-0.2,1.4c0.7,0.8,1.2,1.8,1.2,3 c0,2.2-1.7,3.5-4,4c0.6,0.5,1,1.4,1,2.3v3.3c4.1-1.3,7-5.1,7-9.5C22,6.1,16.9,1.4,10.9,2.1z"></path>
  </symbol>
  <symbol id="linkedin" viewBox="0 0 24 24" fill="currentColor">
    <path d="M19,3H5C3.895,3,3,3.895,3,5v14c0,1.105,0.895,2,2,2h14c1.105,0,2-0.895,2-2V5C21,3.895,20.105,3,19,3z M9,17H6.477v-7H9 V17z M7.694,8.717c-0.771,0-1.286-0.514-1.286-1.2s0.514-1.2,1.371-1.2c0.771,0,1.286,0.514,1.286,1.2S8.551,8.717,7.694,8.717z M18,17h-2.442v-3.826c0-1.058-0.651-1.302-0.895-1.302s-1.058,0.163-1.058,1.302c0,0.163,0,3.826,0,3.826h-2.523v-7h2.523v0.977 C13.93,10.407,14.581,10,15.802,10C17.023,10,18,10.977,18,13.174V17z"></path>
  </symbol>
  <symbol id="mail" viewBox="0 0 24 24" fill="none" stroke="currentColor">
    <path stroke-linecap="round" stroke-linejoin="round" stroke-width="2" d="M3 8l7.89 4.26a2 2 0 002.22 0L21 8M5 19h14a2 2 0 002-2V7a2 2 0 00-2-2H5a2 2 0 00-2 2v10a2 2 0 002 2z"/>
  </symbol>
  <symbol id="stack-overflow" fill="currentColor" viewBox="0 0 24 24">
    <path d="M 19.03125 1.96875 L 17.09375 2.5 L 18.90625 9.25 L 20.84375 8.75 Z M 14.09375 4.0625 L 12.5625 5.34375 L 17.0625 10.71875 L 18.59375 9.4375 Z M 10.71875 7.53125 L 9.71875 9.25 L 15.78125 12.75 L 16.78125 11.03125 Z M 8.96875 11.125 L 8.4375 13.03125 L 15.21875 14.84375 L 15.71875 12.9375 Z M 8.1875 14.28125 L 8.03125 16.28125 L 15 16.875 L 15.1875 14.875 Z M 5 15 L 5 22 L 18 22 L 18 15 L 16 15 L 16 20 L 7 20 L 7 15 Z M 8 17 L 8 19 L 15 19 L 15 17 Z"></path>
  </symbol>
  <symbol id="x" fill="currentColor" viewBox="0 0 24 24">
    <path d="M10.053,7.988l5.631,8.024h-1.497L8.566,7.988H10.053z M21,6v12	c0,1.657-1.343,3-3,3H6c-1.657,0-3-1.343-3-3V6c0-1.657,1.343-3,3-3h12C19.657,3,21,4.343,21,6z M17.538,17l-4.186-5.99L16.774,7	h-1.311l-2.704,3.16L10.552,7H6.702l3.941,5.633L6.906,17h1.333l3.001-3.516L13.698,17H17.538z"></path>
  </symbol>
</svg>