<?xml version="1.0" encoding="UTF-8"?>
<svg id="uuid-73c2ea8c-70e0-48b3-9765-aafa6b754872" data-name="Logo" xmlns="http://www.w3.org/2000/svg" viewBox="0 0 614.65 480.62">
  <g>
    <path id="uuid-48049ddc-fa68-4f4c-8b73-8fe3890b6f2c" data-name="hexagon" d="M138.27,97.6v195.2l169.05,97.6,169.05-97.6V97.6L307.32,0l-169.05,97.6ZM461.37,284.14l-154.05,88.94-154.05-88.94V106.26L307.32,17.32l154.05,88.94v177.88Z" style="fill: #fafad2;"/>
    <path id="uuid-8afdcce9-4f97-4e29-9783-90617e3367ff" data-name="top-bar" d="M216.22,124.62v16.04h181.4v-16.04c0-5.35-4.34-9.69-9.69-9.69h-162.02c-5.35,0-9.69,4.34-9.69,9.69Z" style="fill: #fafad2;"/>
    <path id="uuid-7ef6d27e-2e05-4b61-acb2-ee81a568029f" data-name="code-box" d="M216.22,265.79c0,5.35,4.34,9.69,9.69,9.69h162.02c5.35,0,9.69-4.34,9.69-9.69v-119.19h-181.4v119.19ZM346.63,219.46c2.09,0,3.78,1.69,3.78,3.78s-1.69,3.78-3.78,3.78h-46.73c-2.09,0-3.78-1.69-3.78-3.78s1.69-3.78,3.78-3.78h46.73ZM268.34,182.36c-1.43-1.5-1.37-3.87.13-5.3,1.5-1.43,3.87-1.37,5.3.13l23.72,24.93-23.79,23.77c-.73.73-1.69,1.1-2.65,1.1s-1.92-.37-2.65-1.1c-1.46-1.46-1.46-3.84,0-5.3l18.61-18.6-18.68-19.63Z" style="fill: #fafad2;"/>
  </g>
  <g id="uuid-5b202e67-b464-4f7c-9794-3f15d42cdcd0" data-name="Layer 2">
    <path id="uuid-3e7f3d44-0322-4e07-9ef9-d8396375bb09" data-name="h" d="M599.1,430.22c-5.9,0-10.69,2.26-14.38,6.78v-26.28h-8.31v69h8.31v-34.63c1.14-2.34,2.72-4.22,4.76-5.66,2.04-1.44,4.4-2.16,7.1-2.16,3.32,0,5.77.84,7.34,2.52,1.57,1.68,2.37,4.27,2.4,7.77v32.16h8.31v-32.12c-.09-11.59-5.27-17.38-15.54-17.38Z" style="fill: #fafad2;"/>
    <polygon id="uuid-4eb9925e-9d0c-4371-97f9-652ac80e3a60" data-name="W" points="58.08 459.06 56.69 467.86 54.89 459.96 42.27 414.32 34.99 414.32 22.06 459.96 20.21 467.73 18.96 459.1 8.62 414.32 0 414.32 15.81 479.72 23.67 479.72 37.64 432.06 38.68 427.07 39.71 432.06 53.19 479.72 61.05 479.72 76.91 414.32 68.24 414.32 58.08 459.06" style="fill: #fafad2;"/>
    <path id="uuid-63fcb6cf-1b78-4851-9569-bee21fe20072" data-name="h" d="M110.34,430.22c-5.9,0-10.69,2.26-14.38,6.78v-26.28h-8.31v69h8.31v-34.63c1.14-2.34,2.72-4.22,4.76-5.66,2.04-1.44,4.4-2.16,7.1-2.16,3.32,0,5.77.84,7.34,2.52,1.57,1.68,2.37,4.27,2.4,7.77v32.16h8.31v-32.12c-.09-11.59-5.27-17.38-15.54-17.38Z" style="fill: #fafad2;"/>
    <rect id="uuid-b31f07de-e20f-47d3-92f5-5fb4accfd95c" data-name="i" x="141.53" y="431.12" width="8.31" height="48.61" style="fill: #fafad2;"/>
    <path id="uuid-ff4b14f3-ba23-4b97-9a2f-9d32fa7d0c7f" data-name="i-dot" d="M145.75,413.42c-1.62,0-2.84.46-3.66,1.39-.82.93-1.24,2.07-1.24,3.41s.41,2.47,1.24,3.37c.82.9,2.04,1.35,3.66,1.35s2.84-.45,3.68-1.35c.84-.9,1.26-2.02,1.26-3.37s-.42-2.49-1.26-3.41c-.84-.93-2.07-1.39-3.68-1.39Z" style="fill: #fafad2;"/>
    <path id="uuid-8fa48666-a089-4cf1-a3bf-93ffc91a294d" data-name="t1" d="M178.11,472.11c-.81-.97-1.21-2.44-1.21-4.39v-30.18h9.07v-6.42h-9.07v-11.77h-8.31v11.77h-8.85v6.42h8.85v30.14c0,4.13.94,7.32,2.83,9.57s4.69,3.37,8.4,3.37c2.07,0,4.19-.3,6.38-.89v-6.7c-1.68.36-3,.54-3.95.54-1.95,0-3.32-.49-4.13-1.46Z" style="fill: #fafad2;"/>
    <path id="uuid-26f7b54a-e709-4c30-b54f-e6f0eded1c49" data-name="t2" d="M210.65,472.11c-.81-.97-1.21-2.44-1.21-4.39v-30.18h9.07v-6.42h-9.07v-11.77h-8.31v11.77h-8.85v6.42h8.85v30.14c0,4.13.94,7.32,2.83,9.57s4.69,3.37,8.4,3.37c2.07,0,4.19-.3,6.38-.89v-6.7c-1.68.36-3,.54-3.95.54-1.95,0-3.32-.49-4.13-1.46Z" style="fill: #fafad2;"/>
    <path id="uuid-4db23112-4395-4935-9cd0-4ed495f3f499" data-name="a" d="M267.71,445.99c-.12-4.91-1.77-8.77-4.94-11.57-3.17-2.8-7.56-4.2-13.16-4.2-3.53,0-6.78.66-9.73,1.98-2.95,1.32-5.29,3.11-7.01,5.37-1.72,2.26-2.58,4.6-2.58,7.03h8.36c0-2.13,1-3.94,3.01-5.44,2.01-1.5,4.49-2.25,7.46-2.25,3.38,0,5.94.86,7.68,2.58,1.74,1.72,2.61,4.04,2.61,6.94v3.82h-8.09c-6.98,0-12.39,1.4-16.24,4.2-3.85,2.8-5.77,6.73-5.77,11.79,0,4.16,1.53,7.6,4.6,10.31,3.07,2.71,7,4.07,11.79,4.07,5.36,0,9.97-2.01,13.84-6.02.3,2.46.69,4.16,1.17,5.12h8.71v-.72c-1.14-2.63-1.71-6.18-1.71-10.65v-22.37ZM259.4,466.11c-1.05,2.16-2.74,3.91-5.08,5.26s-4.81,2.02-7.41,2.02-4.96-.73-6.69-2.2c-1.74-1.47-2.61-3.5-2.61-6.11,0-5.96,5.09-8.94,15.27-8.94h6.51v9.97Z" style="fill: #fafad2;"/>
    <polygon id="uuid-96425d1c-58f7-463c-b52f-c2dc0e7ac48f" data-name="k" points="321.27 431.12 311.16 431.12 296.03 447.11 291.58 452.45 291.58 410.72 283.27 410.72 283.27 479.72 291.58 479.72 291.58 462.65 296.79 457.22 313.72 479.72 323.47 479.72 302.36 451.42 321.27 431.12" style="fill: #fafad2;"/>
    <path id="uuid-37a6a3f6-2977-4305-9612-ded541263186" data-name="e1" d="M351.47,430.22c-3.86,0-7.45,1.07-10.76,3.21-3.31,2.14-5.88,5.11-7.73,8.89-1.84,3.79-2.76,8.09-2.76,12.92v1.53c0,7.25,2.07,13.04,6.2,17.36,4.13,4.33,9.49,6.49,16.08,6.49,8.15,0,14.25-3.13,18.33-9.39l-5.08-3.95c-1.53,1.98-3.31,3.56-5.35,4.76-2.04,1.2-4.52,1.8-7.46,1.8-4.13,0-7.54-1.47-10.22-4.42-2.68-2.95-4.08-6.82-4.2-11.61h32.93v-3.46c0-7.76-1.75-13.72-5.26-17.88-3.5-4.16-8.42-6.24-14.73-6.24ZM363.15,450.97h-24.35c.54-4.4,1.95-7.82,4.22-10.26,2.28-2.44,5.09-3.66,8.45-3.66s6.23,1.16,8.27,3.48c2.04,2.32,3.17,5.59,3.41,9.82v.63Z" style="fill: #fafad2;"/>
    <path id="uuid-66146590-7e90-4520-8760-e43d9ce1bc8a" data-name="r" d="M391.78,436.73l-.13-5.62h-8.09v48.61h8.31v-34.5c1.95-4.64,5.64-6.96,11.1-6.96,1.47,0,2.83.11,4.09.31v-7.73c-.84-.42-2.07-.63-3.68-.63-5,0-8.87,2.17-11.59,6.51Z" style="fill: #fafad2;"/>
    <polygon id="uuid-8e34bc9c-976d-4cd8-8ab6-6e27b58807ba" data-name="T" points="413.09 421.37 434.07 421.37 434.07 479.72 442.65 479.72 442.65 421.37 463.67 421.37 463.67 414.32 413.09 414.32 413.09 421.37" style="fill: #fafad2;"/>
    <path id="uuid-57a73af0-f8ed-413c-8b48-e378fc365644" data-name="e2" d="M493.69,430.22c-3.86,0-7.45,1.07-10.76,3.21-3.31,2.14-5.88,5.11-7.73,8.89-1.84,3.79-2.76,8.09-2.76,12.92v1.53c0,7.25,2.07,13.04,6.2,17.36,4.13,4.33,9.49,6.49,16.08,6.49,8.15,0,14.25-3.13,18.33-9.39l-5.08-3.95c-1.53,1.98-3.31,3.56-5.35,4.76-2.04,1.2-4.52,1.8-7.46,1.8-4.13,0-7.54-1.47-10.22-4.42-2.68-2.95-4.08-6.82-4.2-11.61h32.93v-3.46c0-7.76-1.75-13.72-5.26-17.88-3.5-4.16-8.42-6.24-14.73-6.24ZM505.37,450.97h-24.35c.54-4.4,1.95-7.82,4.22-10.26,2.28-2.44,5.09-3.66,8.45-3.66s6.23,1.16,8.27,3.48c2.04,2.32,3.17,5.59,3.41,9.82v.63Z" style="fill: #fafad2;"/>
    <path id="uuid-a725cb55-2e4c-4257-8a72-3540871cefe4" data-name="c" d="M535.41,441.61c2.32-3.04,5.59-4.56,9.82-4.56,3.14,0,5.79,1.01,7.93,3.03,2.14,2.02,3.33,4.6,3.57,7.75h7.86c-.24-5.21-2.16-9.45-5.77-12.71-3.61-3.26-8.14-4.9-13.59-4.9-4.43,0-8.27,1.02-11.52,3.05-3.25,2.04-5.74,4.9-7.48,8.58-1.74,3.68-2.61,7.89-2.61,12.62v1.39c0,7.67,1.95,13.71,5.86,18.13,3.91,4.42,9.17,6.63,15.79,6.63,3.29,0,6.42-.75,9.37-2.25,2.95-1.5,5.31-3.5,7.08-6.02,1.77-2.52,2.72-5.17,2.88-7.95h-7.86c-.24,2.7-1.47,4.94-3.68,6.74-2.22,1.8-4.81,2.7-7.77,2.7-4.28,0-7.58-1.51-9.88-4.54-2.31-3.02-3.46-7.34-3.46-12.94v-1.57c0-5.75,1.16-10.14,3.48-13.18Z" style="fill: #fafad2;"/>
  </g>
</svg>